<?xml version="1.0" standalone="no"?>
<!DOCTYPE svg PUBLIC "-//W3C//DTD SVG 20010904//EN"
 "http://www.w3.org/TR/2001/REC-SVG-20010904/DTD/svg10.dtd">
<svg version="1.0" xmlns="http://www.w3.org/2000/svg"
 width="1592.000000pt" height="1592.000000pt" viewBox="0 0 1592.000000 1592.000000"
 preserveAspectRatio="xMidYMid meet">
<metadata>
Created by potrace 1.14, written by Peter Selinger 2001-2017
</metadata>
<g transform="translate(0.000000,1592.000000) scale(0.100000,-0.100000)"
fill="#000000" stroke="none">
<path d="M7840 13884 c-507 -34 -791 -77 -1205 -180 -859 -215 -1688 -638
-2370 -1209 -806 -675 -1427 -1565 -1790 -2564 -551 -1518 -452 -3228 271
-4681 180 -360 353 -643 581 -945 612 -812 1430 -1460 2368 -1876 1446 -640
3111 -674 4590 -94 1391 546 2500 1560 3169 2895 62 124 135 280 163 346 485
1151 599 2413 327 3631 -287 1287 -992 2448 -1997 3285 -942 785 -2069 1254
-3297 1373 -155 15 -685 27 -810 19z m825 -259 c734 -78 1369 -262 2005 -580
812 -406 1512 -991 2050 -1715 560 -753 936 -1664 1069 -2590 71 -490 80
-1004 25 -1490 -117 -1054 -547 -2086 -1219 -2930 -437 -549 -977 -1016 -1590
-1375 -186 -109 -562 -294 -755 -370 -516 -205 -1051 -334 -1620 -392 -243
-24 -825 -24 -1060 0 -896 94 -1675 350 -2419 796 -425 255 -754 514 -1111
871 -291 291 -472 508 -689 830 -976 1444 -1247 3235 -743 4900 225 743 626
1471 1142 2075 136 158 473 494 630 626 375 316 725 547 1158 763 699 349
1418 542 2242 600 135 9 742 -3 885 -19z"/>
<path d="M9555 10704 c-49 -25 -85 -65 -115 -130 -152 -317 -186 -1217 -69
-1803 67 -334 174 -478 328 -439 128 33 205 211 257 598 21 157 30 698 15 900
-30 402 -104 709 -196 818 -56 66 -153 91 -220 56z"/>
<path d="M6035 10564 c-117 -60 -184 -230 -231 -584 -22 -168 -31 -708 -15
-919 22 -290 77 -575 134 -701 66 -148 167 -209 270 -166 124 51 201 258 242
649 23 220 29 525 16 747 -30 490 -98 790 -207 920 -53 62 -147 87 -209 54z"/>
<path d="M10610 6844 c-286 -77 -541 -527 -796 -1408 -72 -248 -169 -638 -238
-956 -31 -140 -59 -268 -64 -284 -6 -24 -20 -34 -102 -68 -291 -121 -615 -209
-935 -255 -183 -26 -705 -26 -880 0 -587 86 -1132 285 -1685 614 -524 313
-1087 760 -1560 1238 -110 111 -114 117 -95 131 56 42 185 43 340 1 105 -27
140 -23 179 24 36 42 36 106 0 148 -43 52 -221 95 -389 95 -122 -1 -182 -18
-269 -76 -138 -91 -207 -288 -192 -547 8 -147 18 -186 52 -222 67 -70 190 -29
195 66 1 17 -2 75 -6 130 l-8 100 173 -164 c988 -930 1885 -1469 2828 -1697
500 -121 1059 -137 1550 -43 890 169 1722 644 2591 1479 113 110 162 150 185
154 42 8 87 56 95 100 5 26 41 74 152 198 171 191 316 364 459 547 57 72 106
131 110 131 10 0 38 -102 55 -201 16 -92 37 -123 92 -138 60 -17 124 16 143
73 20 62 -28 283 -91 413 -86 179 -247 278 -419 257 -130 -16 -328 -102 -355
-155 -42 -80 13 -179 100 -179 14 0 56 15 93 34 70 35 175 70 192 64 18 -6
-347 -458 -543 -675 l-66 -72 -22 67 c-51 156 -146 397 -209 530 -159 332
-326 513 -508 551 -66 14 -84 13 -152 -5z m135 -238 c118 -50 263 -275 403
-626 51 -128 162 -454 162 -475 0 -22 -516 -512 -528 -501 -2 2 10 48 27 102
72 232 115 481 130 749 10 185 4 217 -48 252 -39 27 -80 29 -121 8 -49 -26
-59 -59 -70 -239 -16 -260 -47 -452 -112 -676 -29 -101 -110 -314 -150 -393
-11 -22 -20 -52 -20 -69 -1 -24 -11 -37 -53 -68 -149 -110 -568 -370 -579
-359 -6 5 61 301 134 598 142 570 301 1053 437 1326 93 186 203 328 284 368
42 20 60 21 104 3z"/>
</g>
</svg>
